<svg width="134" height="142" viewBox="0 0 134 142" fill="none" xmlns="http://www.w3.org/2000/svg">
<path d="M82.4312 58.0282C82.2457 58.0989 82.0619 58.1716 81.8744 58.2406C81.6696 58.3165 81.4627 58.3928 81.2575 58.4687C80.6423 58.6988 80.0291 58.9326 79.423 59.1784H79.4214C78.4828 59.6015 77.5426 60.0298 76.6076 60.4739C74.0659 61.6827 71.5722 63.01 69.3043 64.6701C68.9048 64.9604 68.5141 65.2631 68.1307 65.5764C69.589 67.385 71.4465 68.8117 73.1362 70.4044C73.5623 70.1 73.9934 69.8025 74.43 69.5125C84.3084 62.9042 96.3483 59.6955 108.194 60.0371C112.59 60.1077 116.923 61.1413 120.966 62.8582C119.465 69.263 114.615 74.2271 109.127 77.5156C100.848 82.4623 91.4488 85.0408 82.0248 86.8175C81.1075 86.9911 80.1903 87.1554 79.2747 87.3149C79.2747 87.3343 79.2783 87.3681 79.2799 87.3928C79.2852 87.4865 79.2924 87.5874 79.2993 87.6847C79.3009 87.7182 79.3045 87.7606 79.3062 87.7856V87.7872C80.1351 88.3198 80.9834 88.8191 81.8406 89.302V89.3036C84.3081 90.7001 86.8461 91.9847 89.158 93.6484C95.6569 97.9366 101.983 103.823 103.395 111.849C93.5075 112.436 84.6597 106.233 79.0655 98.4816C78.8728 98.2144 78.6837 97.9471 78.4999 97.6762C78.5547 98.1312 78.6305 98.5806 78.7225 99.0266C79.6256 103.362 82.2257 107.24 85.4 110.274C91.9751 116.232 101.286 118.254 109.94 117.8C109.986 111.003 107.78 104.037 103.059 99.046C97.5639 93.0218 89.81 89.5831 81.9571 87.8645C81.8035 87.831 81.6515 87.7971 81.4975 87.7656C81.6531 87.7531 81.8104 87.7409 81.966 87.732C86.4413 87.4046 90.9482 87.3974 95.3739 86.617C103.312 85.2666 111.101 82.3554 117.522 77.4108C123.019 73.2481 127.729 67.8239 130.753 61.589C131.354 60.352 131.89 59.0811 132.349 57.782C132.47 57.4441 132.584 57.1042 132.694 56.7627C132.486 56.7025 132.277 56.6423 132.067 56.5858C131.216 56.3468 130.363 56.122 129.506 55.9096C115.2 52.3808 99.9237 52.5754 85.8261 56.8935V56.8951C84.7726 57.2173 83.7247 57.5624 82.6853 57.9323H82.6837C82.599 57.9625 82.5159 57.996 82.4309 58.0279L82.4312 58.0282Z" fill="#8CC63F"/>
<path d="M74.8574 108.104C73.2836 104.242 69.3831 102.182 66.2949 99.6847C63.6439 97.8511 61.183 95.2874 60.8192 91.9302C60.2986 86.2616 62.6889 80.606 66.4295 76.4351C64.9265 74.8464 63.3924 73.2649 61.5553 72.0647C60.6679 72.8356 59.8866 73.6235 59.2017 74.4213C55.7514 78.4347 54.7024 82.696 54.5935 86.1693C54.578 86.6384 54.5807 87.0933 54.5964 87.5325C54.7166 90.8302 55.6026 93.1698 55.7189 93.459C55.7202 93.4646 55.7218 93.4676 55.7231 93.4719V93.4732C55.7261 93.4804 55.7287 93.486 55.7287 93.4886C56.5567 96.218 58.054 98.739 60.2405 100.588C63.6186 103.454 67.7584 105.565 70.3766 109.246C71.6405 111.829 69.1254 114.075 67.6169 115.871C68.5072 116.715 69.3874 117.574 70.2846 118.427C73.1746 115.895 75.8184 112.144 74.8574 108.103V108.104Z" fill="#8CC63F"/>
<path d="M65.4239 88.1788C65.5982 91.6083 65.6757 95.0428 65.7981 98.4773C66.5969 98.7229 67.7325 99.6147 68.1763 98.3675C68.4941 94.9718 68.3894 91.5505 68.6362 88.1544C70.1366 86.998 71.1756 84.8734 70.0075 83.1112C68.6862 80.6589 64.6819 81.0014 63.7735 83.6279C62.9876 85.3905 64.1462 87.0624 65.4239 88.1788Z" fill="#006837"/>
<path d="M74.0262 125.543C72.6904 119.584 66.2417 117.091 63.6314 111.939C62.5231 109.563 64.959 107.82 66.3336 106.271C65.088 105.353 63.8379 104.45 62.568 103.578C61.0402 105.276 59.2073 107.045 59.0395 109.466C58.9637 113.217 61.4643 116.348 64.0943 118.737C66.3658 120.946 69.3119 122.714 70.5249 125.789C71.8463 129.275 69.757 132.942 67.4547 135.478C67.2548 131.049 67.7453 126.608 67.3966 122.185C67.1963 122.34 66.7899 122.65 66.59 122.805C66.3769 127.002 66.6947 131.223 66.6353 135.427V135.427C66.6419 135.531 66.6481 135.731 66.6547 135.828C66.8884 137.868 66.3063 140.07 67.1724 142C67.3644 139.972 67.3191 137.932 67.3644 135.898C71.6592 134.627 75.2376 130.158 74.0259 125.543H74.0262Z" fill="#006837"/>
<path d="M67.9252 107.574C67.7059 107.33 67.2748 106.832 67.0555 106.587L66.3004 106.832C65.7857 109.155 66.2036 111.596 66.2551 113.966C66.2551 114.832 66.7262 115.321 67.675 115.438C67.8864 112.823 68.0476 110.196 67.9252 107.574Z" fill="#006837"/>
<path d="M66.6356 135.427C64.74 133.219 62.8638 130.547 63.1285 127.479C63.2896 125.13 65.0562 123.379 66.4761 121.675C65.5726 120.92 64.658 120.19 63.7545 119.447C61.678 121.623 59.7953 124.335 59.9309 127.486C59.8534 131.431 63.0316 134.736 66.655 135.828C66.6484 135.731 66.6422 135.53 66.6356 135.427Z" fill="#8CC63F"/>
<path d="M23.5144 120.595C22.7932 119.939 22.0864 119.266 21.3953 118.576C9.60623 106.835 2.29773 90.5867 2.29773 72.6623C2.29773 70.3511 2.41953 68.0661 2.65656 65.817C1.98323 64.6931 1.35586 63.5429 0.781341 62.3694C0.261651 65.7516 0 69.1864 0 72.6623C0 81.7184 1.77115 90.5051 5.26519 98.7755C8.6394 106.764 13.4699 113.939 19.6241 120.099C25.7767 126.262 32.9421 131.099 40.9203 134.477C48.2731 137.592 56.0356 139.339 64.0336 139.684C64.0142 139.102 64.0299 138.539 64.046 137.999C64.0496 137.88 64.0533 137.762 64.0549 137.645C64.0565 137.555 64.0602 137.468 64.0602 137.381C63.8711 137.374 63.682 137.366 63.4929 137.353C48.1461 136.53 34.2024 130.325 23.5144 120.595Z" fill="#8CC63F"/>
<path d="M133.242 62.5216C132.677 63.7037 132.049 64.8683 131.364 66.0116V66.0133C131.586 68.1989 131.701 70.4182 131.701 72.6623C131.701 90.5955 124.385 106.851 112.586 118.593C111.962 119.216 111.324 119.825 110.673 120.421C100.005 130.212 86.0562 136.473 70.6934 137.342C70.6369 137.346 70.5821 137.349 70.5256 137.351C70.347 137.363 70.1684 137.372 69.9902 137.379C69.9849 138.061 69.976 139.098 69.9583 139.683C77.9579 139.34 85.7224 137.593 93.0785 134.477C101.057 131.098 108.222 126.261 114.375 120.099C120.529 113.939 125.359 106.764 128.734 98.7752C132.228 90.5051 133.999 81.718 133.999 72.662C133.999 69.2393 133.746 65.8538 133.242 62.5212V62.5216Z" fill="#006837"/>
<path d="M128.647 52.979C129.522 53.1773 130.395 53.3913 131.264 53.6181C130.556 51.2237 129.713 48.8664 128.733 46.5479C125.359 38.5593 120.529 31.3862 114.374 25.2239C108.222 19.0633 101.056 14.2265 93.0781 10.8479C87.486 8.47811 81.6551 6.90122 75.6651 6.12971C76.296 6.98439 76.904 7.85156 77.4907 8.72958C101.643 12.6887 121.342 30.0874 128.647 52.9794L128.647 52.979Z" fill="#006837"/>
<path d="M5.33774 53.0198C12.6127 30.1735 32.2264 12.791 56.2973 8.76278C56.8859 7.88147 57.4975 7.01233 58.1302 6.15601C52.211 6.9364 46.4507 8.50441 40.9203 10.8475C32.9421 14.2262 25.7767 19.063 19.6241 25.2236C13.4699 31.3859 8.6394 38.5589 5.26518 46.5476C4.27899 48.8838 3.4287 51.2605 2.71827 53.6746C3.58793 53.4429 4.46086 53.2233 5.33774 53.0215V53.0198Z" fill="#8CC63F"/>
<path d="M3.27345 61.4348V61.4365C7.40931 69.7525 14.1771 76.7326 22.3585 81.1181C30.275 85.4027 39.3031 87.2945 48.2538 87.4947C49.348 87.47 50.5072 87.6469 51.6066 87.5266C49.369 88.284 47.2305 89.0502 45.2545 89.8342C43.4603 90.5423 41.8025 91.2661 40.3195 92.0074C40.3038 92.0146 40.2893 92.0215 40.2752 92.0288C40.2628 92.034 40.2522 92.0393 40.2417 92.0446V92.0462C35.9148 94.292 31.9999 97.315 29.1171 101.279C25.568 106.056 24.0676 112.061 24.0479 117.943C31.1992 117.988 38.6383 116.942 44.83 113.115C49.9911 110.006 53.8157 104.852 55.3978 99.0437C55.5587 98.4543 55.6965 97.858 55.8095 97.2561C55.5514 97.6473 55.2845 98.0349 55.0088 98.4172C49.4199 106.215 40.5914 112.271 30.7166 111.951C31.2291 107.845 33.3252 104.118 36.0579 101.079C38.2956 98.5783 40.8461 96.4366 43.568 94.5235C43.9833 94.2316 44.4042 93.9429 44.8264 93.6615C46.5549 92.3874 49.7646 90.0476 51.9986 88.57C53.1086 87.8372 53.9763 87.3152 54.3052 87.2426L53.8069 87.0516C53.5646 86.9595 53.3154 86.8958 53.0593 86.8586C52.6848 86.8037 52.3082 86.7472 51.9336 86.687C43.3648 85.3366 34.9253 82.7916 27.2157 78.7848C20.8953 75.4203 14.815 70.212 13.2083 62.9081C20.1741 59.5897 28.1736 59.5897 35.6745 60.5525C44.3123 61.802 52.9303 64.7806 60.1239 69.7942C62.745 71.6223 65.1754 73.7215 67.351 76.1034C67.8546 76.6343 68.3356 77.1935 68.7896 77.776C69.2315 78.3404 69.6468 78.9262 70.0338 79.5317C71.3877 81.6447 72.4005 83.9879 72.9323 86.425V86.4267C73.3371 88.2672 73.4661 90.161 73.2646 92.0528C73.065 93.9587 72.153 95.5695 70.9403 96.9603C70.9403 96.9614 70.9397 96.9626 70.9386 96.9639C70.4225 97.5549 69.8569 98.1036 69.265 98.6203C68.7788 99.0434 68.2788 99.4451 67.7784 99.8274C68.33 100.217 68.8815 100.605 69.4327 100.994C70.1451 101.495 70.8572 101.997 71.568 102.498C72.0203 102.14 72.4747 101.781 72.9182 101.41C74.0141 100.502 75.0604 99.5299 75.9211 98.3938C76.0078 98.2772 76.0945 98.1585 76.1792 98.0382C76.2304 97.9675 76.28 97.8965 76.3295 97.8258C77.7983 95.7144 78.5813 93.2404 78.9877 90.7096C79.1434 89.7379 79.2441 88.7577 79.3059 87.7859V87.7843C79.3042 87.7596 79.3006 87.7169 79.299 87.6834C79.2917 87.5861 79.2848 87.4852 79.2796 87.3915C79.2779 87.3668 79.2743 87.333 79.2743 87.3136V87.3119C79.2497 86.4217 79.1719 85.5368 79.0409 84.6591C78.82 83.1671 78.4507 81.7 77.9487 80.2789C77.148 78.0242 76.015 75.8862 74.6047 73.9503C74.3926 73.6564 74.1753 73.3681 73.9507 73.0831C71.4232 69.8248 68.3461 67.0711 64.9577 64.7421C61.6722 62.4838 58.0964 60.6238 54.4431 59.093C53.3085 49.7911 53.6106 40.2394 55.9313 31.1377C57.8544 23.9896 60.8767 16.592 66.9249 11.9744C71.2321 15.2166 73.9789 20.0341 75.9267 24.9646C79.7461 34.8805 80.5859 45.685 79.711 56.2153C79.6296 57.2064 79.5324 58.1939 79.4211 59.1778H79.4227C80.0291 58.9283 80.6423 58.6965 81.2572 58.4681C81.4624 58.3921 81.6689 58.3159 81.8741 58.2399C82.0616 58.1709 82.2454 58.0983 82.4309 58.0276C82.5156 57.9957 82.5987 57.9622 82.6837 57.9319H82.6853C83.053 56.8948 83.3869 55.8472 83.684 54.7887C84.1436 53.1605 84.5182 51.5074 84.8081 49.842C85.2834 47.0936 85.5257 44.306 85.5257 41.5171C85.5257 38.5317 85.2483 35.5459 84.6827 32.6081C82.9965 23.8035 79.1841 15.5013 73.9382 8.24702C73.3302 7.4045 72.7009 6.57644 72.0558 5.76417C70.4527 3.74646 68.7364 1.82113 66.9249 0C65.1025 1.82277 63.3793 3.75205 61.7726 5.77469C61.1239 6.59058 60.4929 7.4206 59.8849 8.26641H59.8833C55.2983 14.6147 51.822 21.7697 49.8654 29.355C47.4261 38.6904 47.8841 48.7056 51.0902 57.7952C36.1817 52.6273 19.7637 52.1125 4.47862 55.9583V55.9599C3.62145 56.1739 2.76755 56.404 1.9176 56.6483C1.71241 56.7048 1.50756 56.765 1.30434 56.8251C1.4176 57.1384 1.53415 57.4497 1.6543 57.7613C2.1369 59.0108 2.6776 60.2356 3.27345 61.4335V61.4348Z" fill="#006837"/>
</svg>
